<mxfile host="Electron" modified="2023-12-12T08:52:17.857Z" agent="Mozilla/5.0 (Windows NT 10.0; Win64; x64) AppleWebKit/537.36 (KHTML, like Gecko) draw.io/22.0.2 Chrome/114.0.5735.289 Electron/25.8.4 Safari/537.36" etag="a2qP4F7UJWK3NBFUbSI5" version="22.0.2" type="device">
  <diagram name="Page-1" id="EhfJbnlZHjUxDxyVnIuF">
    <mxGraphModel dx="491" dy="576" grid="1" gridSize="10" guides="1" tooltips="1" connect="1" arrows="1" fold="1" page="1" pageScale="1" pageWidth="827" pageHeight="1169" math="0" shadow="0">
      <root>
        <mxCell id="0" />
        <mxCell id="1" parent="0" />
        <mxCell id="cWrIikLr_glTUy_gl2Zj-1" value="n - Ievadītais skaitlis&lt;br&gt;r - Rezultāts (Kvadrātsakne no n)" style="verticalLabelPosition=middle;verticalAlign=middle;html=1;shape=card;whiteSpace=wrap;size=20;arcSize=12;labelPosition=center;align=center;" vertex="1" parent="1">
          <mxGeometry x="346" y="50" width="136" height="60" as="geometry" />
        </mxCell>
        <mxCell id="cWrIikLr_glTUy_gl2Zj-5" style="edgeStyle=orthogonalEdgeStyle;rounded=0;orthogonalLoop=1;jettySize=auto;html=1;entryX=0.5;entryY=0;entryDx=0;entryDy=0;" edge="1" parent="1" source="cWrIikLr_glTUy_gl2Zj-2" target="cWrIikLr_glTUy_gl2Zj-3">
          <mxGeometry relative="1" as="geometry" />
        </mxCell>
        <mxCell id="cWrIikLr_glTUy_gl2Zj-2" value="Sākums" style="strokeWidth=2;html=1;shape=mxgraph.flowchart.start_1;whiteSpace=wrap;" vertex="1" parent="1">
          <mxGeometry x="364" y="150" width="100" height="60" as="geometry" />
        </mxCell>
        <mxCell id="cWrIikLr_glTUy_gl2Zj-3" value="n" style="html=1;strokeWidth=2;shape=manualInput;whiteSpace=wrap;rounded=1;size=26;arcSize=11;" vertex="1" parent="1">
          <mxGeometry x="364" y="270" width="100" height="60" as="geometry" />
        </mxCell>
        <mxCell id="cWrIikLr_glTUy_gl2Zj-4" style="edgeStyle=orthogonalEdgeStyle;rounded=0;orthogonalLoop=1;jettySize=auto;html=1;entryX=0.5;entryY=0;entryDx=0;entryDy=0;entryPerimeter=0;" edge="1" parent="1" source="cWrIikLr_glTUy_gl2Zj-1" target="cWrIikLr_glTUy_gl2Zj-2">
          <mxGeometry relative="1" as="geometry" />
        </mxCell>
        <mxCell id="cWrIikLr_glTUy_gl2Zj-9" value="Jā" style="edgeStyle=orthogonalEdgeStyle;rounded=0;orthogonalLoop=1;jettySize=auto;html=1;entryX=0.5;entryY=0;entryDx=0;entryDy=0;" edge="1" parent="1" source="cWrIikLr_glTUy_gl2Zj-6" target="cWrIikLr_glTUy_gl2Zj-8">
          <mxGeometry x="-1" y="-14" relative="1" as="geometry">
            <mxPoint as="offset" />
          </mxGeometry>
        </mxCell>
        <mxCell id="cWrIikLr_glTUy_gl2Zj-6" value="&lt;b&gt;&lt;i&gt;n&lt;/i&gt; &lt;/b&gt;ir vesels&lt;br&gt;skaitlis" style="strokeWidth=2;html=1;shape=mxgraph.flowchart.decision;whiteSpace=wrap;" vertex="1" parent="1">
          <mxGeometry x="364" y="370" width="100" height="100" as="geometry" />
        </mxCell>
        <mxCell id="cWrIikLr_glTUy_gl2Zj-7" style="edgeStyle=orthogonalEdgeStyle;rounded=0;orthogonalLoop=1;jettySize=auto;html=1;entryX=0.5;entryY=0;entryDx=0;entryDy=0;entryPerimeter=0;" edge="1" parent="1" source="cWrIikLr_glTUy_gl2Zj-3" target="cWrIikLr_glTUy_gl2Zj-6">
          <mxGeometry relative="1" as="geometry" />
        </mxCell>
        <mxCell id="cWrIikLr_glTUy_gl2Zj-8" value="n = | n |&lt;br&gt;r = kvadratsakne no &lt;b&gt;&lt;i&gt;n&lt;/i&gt;&lt;/b&gt;" style="rounded=1;whiteSpace=wrap;html=1;absoluteArcSize=1;arcSize=14;strokeWidth=2;" vertex="1" parent="1">
          <mxGeometry x="364" y="520" width="100" height="60" as="geometry" />
        </mxCell>
        <mxCell id="cWrIikLr_glTUy_gl2Zj-10" value="r" style="strokeWidth=2;html=1;shape=mxgraph.flowchart.display;whiteSpace=wrap;" vertex="1" parent="1">
          <mxGeometry x="364" y="620" width="100" height="60" as="geometry" />
        </mxCell>
        <mxCell id="cWrIikLr_glTUy_gl2Zj-11" style="edgeStyle=orthogonalEdgeStyle;rounded=0;orthogonalLoop=1;jettySize=auto;html=1;entryX=0.5;entryY=0;entryDx=0;entryDy=0;entryPerimeter=0;" edge="1" parent="1" source="cWrIikLr_glTUy_gl2Zj-8" target="cWrIikLr_glTUy_gl2Zj-10">
          <mxGeometry relative="1" as="geometry" />
        </mxCell>
        <mxCell id="cWrIikLr_glTUy_gl2Zj-15" value="Nē" style="edgeStyle=orthogonalEdgeStyle;rounded=0;orthogonalLoop=1;jettySize=auto;html=1;" edge="1" parent="1" source="cWrIikLr_glTUy_gl2Zj-12" target="cWrIikLr_glTUy_gl2Zj-13">
          <mxGeometry x="-1" y="-14" relative="1" as="geometry">
            <mxPoint as="offset" />
          </mxGeometry>
        </mxCell>
        <mxCell id="cWrIikLr_glTUy_gl2Zj-16" value="Jā" style="edgeStyle=orthogonalEdgeStyle;rounded=0;orthogonalLoop=1;jettySize=auto;html=1;" edge="1" parent="1" source="cWrIikLr_glTUy_gl2Zj-12">
          <mxGeometry x="-0.9894" y="-10" relative="1" as="geometry">
            <mxPoint x="410" y="230" as="targetPoint" />
            <Array as="points">
              <mxPoint x="280" y="790" />
              <mxPoint x="280" y="230" />
            </Array>
            <mxPoint as="offset" />
          </mxGeometry>
        </mxCell>
        <mxCell id="cWrIikLr_glTUy_gl2Zj-12" value="Atkārtot" style="strokeWidth=2;html=1;shape=mxgraph.flowchart.decision;whiteSpace=wrap;" vertex="1" parent="1">
          <mxGeometry x="364" y="740" width="100" height="100" as="geometry" />
        </mxCell>
        <mxCell id="cWrIikLr_glTUy_gl2Zj-13" value="Beigas" style="strokeWidth=2;html=1;shape=mxgraph.flowchart.terminator;whiteSpace=wrap;" vertex="1" parent="1">
          <mxGeometry x="364" y="890" width="100" height="60" as="geometry" />
        </mxCell>
        <mxCell id="cWrIikLr_glTUy_gl2Zj-14" style="edgeStyle=orthogonalEdgeStyle;rounded=0;orthogonalLoop=1;jettySize=auto;html=1;entryX=0.5;entryY=0;entryDx=0;entryDy=0;entryPerimeter=0;" edge="1" parent="1" source="cWrIikLr_glTUy_gl2Zj-10" target="cWrIikLr_glTUy_gl2Zj-12">
          <mxGeometry relative="1" as="geometry" />
        </mxCell>
        <mxCell id="cWrIikLr_glTUy_gl2Zj-20" style="edgeStyle=orthogonalEdgeStyle;rounded=0;orthogonalLoop=1;jettySize=auto;html=1;" edge="1" parent="1" source="cWrIikLr_glTUy_gl2Zj-17">
          <mxGeometry relative="1" as="geometry">
            <mxPoint x="420" y="700" as="targetPoint" />
            <Array as="points">
              <mxPoint x="570" y="700" />
            </Array>
          </mxGeometry>
        </mxCell>
        <mxCell id="cWrIikLr_glTUy_gl2Zj-17" value="&quot;Nav ievadīts vesels skaitlis!&quot;" style="strokeWidth=2;html=1;shape=mxgraph.flowchart.display;whiteSpace=wrap;" vertex="1" parent="1">
          <mxGeometry x="520" y="520" width="100" height="60" as="geometry" />
        </mxCell>
        <mxCell id="cWrIikLr_glTUy_gl2Zj-18" value="Nē" style="edgeStyle=orthogonalEdgeStyle;rounded=0;orthogonalLoop=1;jettySize=auto;html=1;entryX=0.5;entryY=0;entryDx=0;entryDy=0;entryPerimeter=0;" edge="1" parent="1" source="cWrIikLr_glTUy_gl2Zj-6" target="cWrIikLr_glTUy_gl2Zj-17">
          <mxGeometry x="-0.9418" y="10" relative="1" as="geometry">
            <mxPoint as="offset" />
          </mxGeometry>
        </mxCell>
      </root>
    </mxGraphModel>
  </diagram>
</mxfile>
